<svg width="363.20001220703125" height="92.31663345857731" viewBox="0 0 344.25 87.50000000000001" class="css-1j8o68f"><defs id="SvgjsDefs3990"></defs><g id="SvgjsG3991" featurekey="Df7oLJ-0" transform="matrix(1.4583333333333335,0,0,1.4583333333333335,-2.916666666666667,-2.916666666666667)" fill="#ff6989"><circle xmlns="http://www.w3.org/2000/svg" cx="26" cy="27" r="4"></circle><circle xmlns="http://www.w3.org/2000/svg" cx="45" cy="32" r="3"></circle><path xmlns="http://www.w3.org/2000/svg" d="M45,20c0-2.76-2.24-5-5-5c-0.35,0-0.7,0.04-1.03,0.11c0.01-0.2,0.03-0.4,0.03-0.61C39,7.6,33.4,2,26.5,2S14,7.6,14,14.5  c0,0.87,0.09,1.72,0.26,2.54C7.98,17.42,3,22.62,3,29c0,6.63,5.37,12,12,12h35c6.08,0,11-4.92,11-11c0-6.08-4.92-11-11-11  c-1.81,0-3.52,0.45-5.02,1.22C44.98,20.15,45,20.08,45,20z M26.5,6c0.972,0,1.925,0.164,2.834,0.486l-0.668,1.885  C27.972,8.125,27.243,8,26.5,8V6z M23.666,6.486l0.669,1.885C21.742,9.29,20,11.753,20,14.5h-2C18,10.908,20.277,7.688,23.666,6.486  z M35.91,28.27l-2.22,0.91c-0.17,0.6-0.41,1.18-0.71,1.72l0.92,2.21c-0.52,0.67-1.12,1.27-1.79,1.79l-2.21-0.92  c-0.54,0.3-1.12,0.54-1.72,0.71l-0.91,2.22C26.85,36.96,26.43,37,26,37s-0.85-0.04-1.27-0.09l-0.91-2.22  c-0.6-0.17-1.18-0.41-1.72-0.71l-2.21,0.92c-0.67-0.52-1.27-1.12-1.79-1.79l0.92-2.21c-0.3-0.54-0.54-1.12-0.71-1.72l-2.22-0.91  C16.04,27.85,16,27.43,16,27s0.04-0.85,0.09-1.27l2.22-0.91c0.17-0.6,0.41-1.18,0.71-1.72l-0.92-2.21c0.52-0.67,1.12-1.27,1.79-1.79  l2.21,0.92c0.54-0.3,1.12-0.54,1.72-0.71l0.91-2.22C25.15,17.04,25.57,17,26,17s0.85,0.04,1.27,0.09l0.91,2.22  c0.6,0.17,1.18,0.41,1.72,0.71l2.21-0.92c0.67,0.52,1.27,1.12,1.79,1.79l-0.92,2.21c0.3,0.54,0.54,1.12,0.71,1.72l2.22,0.91  C35.96,26.15,36,26.57,36,27S35.96,27.85,35.91,28.27z M46,26v1.101c0.198,0.04,0.383,0.113,0.572,0.177l0.562-0.974l1.732,1  l-0.562,0.973c0.148,0.132,0.287,0.27,0.419,0.419l0.973-0.562l1,1.732l-0.974,0.562c0.063,0.189,0.136,0.374,0.177,0.572H51v2  h-1.101c-0.04,0.198-0.113,0.383-0.177,0.572l0.974,0.562l-1,1.732l-0.973-0.562c-0.132,0.148-0.27,0.287-0.419,0.419l0.562,0.973  l-1.732,1l-0.562-0.974c-0.189,0.063-0.374,0.136-0.572,0.177V38h-2v-1.101c-0.198-0.04-0.383-0.113-0.572-0.177l-0.562,0.974  l-1.732-1l0.562-0.973c-0.148-0.132-0.287-0.27-0.419-0.419l-0.973,0.562l-1-1.732l0.974-0.562  c-0.063-0.189-0.136-0.374-0.177-0.572H39v-2h1.101c0.04-0.198,0.113-0.383,0.177-0.572l-0.974-0.562l1-1.732l0.973,0.562  c0.132-0.148,0.27-0.287,0.419-0.419l-0.562-0.973l1.732-1l0.562,0.974c0.189-0.063,0.374-0.136,0.572-0.177V26H46z"></path><rect xmlns="http://www.w3.org/2000/svg" x="13" y="48" width="3" height="2"></rect><polygon xmlns="http://www.w3.org/2000/svg" points="27,52 23,52 23,54 29,54 29,47 27,47 "></polygon><rect xmlns="http://www.w3.org/2000/svg" x="18" y="52" width="3" height="2"></rect><rect xmlns="http://www.w3.org/2000/svg" x="13" y="52" width="3" height="2"></rect><rect xmlns="http://www.w3.org/2000/svg" x="19" y="56" width="8" height="2"></rect><rect xmlns="http://www.w3.org/2000/svg" x="15" y="60" width="2" height="2"></rect><rect xmlns="http://www.w3.org/2000/svg" x="19" y="60" width="2" height="2"></rect><rect xmlns="http://www.w3.org/2000/svg" x="23" y="60" width="2" height="2"></rect><polygon xmlns="http://www.w3.org/2000/svg" points="35,60 27,60 27,62 37,62 37,56 35,56 "></polygon><rect xmlns="http://www.w3.org/2000/svg" x="35" y="49" width="2" height="5"></rect><path xmlns="http://www.w3.org/2000/svg" d="M62,49c0-1.65-1.35-3-3-3c-1.298,0-2.399,0.84-2.815,2H52v2h4.185c0.416,1.16,1.517,2,2.815,2C60.65,52,62,50.65,62,49z"></path><path xmlns="http://www.w3.org/2000/svg" d="M8,54c-1.65,0-3,1.35-3,3c0,1.65,1.35,3,3,3c1.298,0,2.399-0.84,2.815-2H17v-2h-6.185C10.399,54.84,9.298,54,8,54z"></path><path xmlns="http://www.w3.org/2000/svg" d="M5,52c1.298,0,2.399-0.84,2.815-2H11v-2H7.815C7.399,46.84,6.298,46,5,46c-1.65,0-3,1.35-3,3C2,50.65,3.35,52,5,52z"></path><rect xmlns="http://www.w3.org/2000/svg" x="47" y="52" width="3" height="2"></rect><rect xmlns="http://www.w3.org/2000/svg" x="52" y="52" width="3" height="2"></rect><rect xmlns="http://www.w3.org/2000/svg" x="27" y="43" width="2" height="2"></rect><polygon xmlns="http://www.w3.org/2000/svg" points="23,48 18,48 18,50 25,50 25,43 23,43 "></polygon><polygon xmlns="http://www.w3.org/2000/svg" points="31,56 29,56 29,58 33,58 33,43 31,43 "></polygon><polygon xmlns="http://www.w3.org/2000/svg" points="43,43 43,50 50,50 50,48 45,48 45,43 "></polygon><rect xmlns="http://www.w3.org/2000/svg" x="35" y="43" width="2" height="4"></rect><polygon xmlns="http://www.w3.org/2000/svg" points="39,43 39,54 45,54 45,52 41,52 41,43 "></polygon></g><g id="SvgjsG3992" featurekey="Ua4uQk-0" transform="matrix(4.9757793234568455,0,0,4.9757793234568455,100.834878675824,-20.85467119546813)" fill="#ff6989"><path d="M8.52 6 l3.9 14 l-3.2 0 l-0.56 -2.02 l-3.46 0 l-0.56 2.02 l-3.2 0 l3.9 -14 l3.18 0 z M6.1 14.719999999999999 l1.66 0 l-0.84 -2.98 z M22.18 6 c1.36 0 2.48 1.12 2.48 2.5 l0 9 c0 1.38 -1.12 2.5 -2.48 2.5 l-7.42 0 l0 -14 l7.42 0 z M21.46 16.12 l0 -6.24 c0 -0.38 -0.3 -0.66 -0.66 -0.66 l-2.84 0 l0 7.58 l2.84 0 c0.36 0 0.66 -0.3 0.66 -0.68 z M33.620000000000005 6 l3.9 14 l-3.2 0 l-0.56 -2.02 l-3.46 0 l-0.56 2.02 l-3.2 0 l3.9 -14 l3.18 0 z M31.200000000000003 14.719999999999999 l1.66 0 l-0.84 -2.98 z M46.42 11.4 c1.38 0 2.5 1.12 2.5 2.5 l0 3.62 c0 1.38 -1.12 2.48 -2.5 2.48 l-6.32 0 l0 -3.2 l5.6 0 l0 -2.18 l-3.12 0 c-1.38 0 -2.48 -1.12 -2.48 -2.5 l0 -3.62 c0 -1.38 1.12 -2.5 2.48 -2.5 l6.34 0 l0 3.22 l-5.62 0 l0 2.18 l3.12 0 z"></path></g></svg>